HIERARCHY
ROOT hip
{
	OFFSET 0.000000 0.000000 0.000000 
	CHANNELS 6 Xposition Yposition Zposition Xrotation Zrotation Yrotation
	JOINT abdomen
	{
		OFFSET 0.000000 3.402643 0.000000 
		CHANNELS 3 Xrotation Zrotation Yrotation
		JOINT chest
		{
			OFFSET 0.000000 8.438565 -0.680529 
			CHANNELS 3 Xrotation Zrotation Yrotation
			JOINT neck
			{
				OFFSET 0.000000 10.207942 -0.272212 
				CHANNELS 3 Xrotation Zrotation Yrotation
				JOINT head
				{
					OFFSET 0.000000 3.130431 0.000000 
					CHANNELS 3 Xrotation Zrotation Yrotation
					End Site
					{
						OFFSET 0.000000 3.130435 0.000000 
					}
				}
			}
			JOINT lCollar
			{
				OFFSET 3.470700 6.669187 -0.816635 
				CHANNELS 3 Yrotation Zrotation Xrotation
				JOINT lShldr
				{
					OFFSET 3.198488 0.000000 0.000000 
					CHANNELS 3 Zrotation Yrotation Xrotation
					JOINT lForeArm
					{
						OFFSET 10.139888 0.000000 0.000000 
						CHANNELS 3 Yrotation Zrotation Xrotation
						JOINT lHand
						{
							OFFSET 8.370511 0.000000 0.000000 
							CHANNELS 3 Zrotation Yrotation Xrotation
							End Site
							{
								OFFSET 4.083176 0.000000 0.000000 
							}
						}
					}
				}
			}
			JOINT rCollar
			{
				OFFSET -3.470700 6.669187 -0.816635 
				CHANNELS 3 Yrotation Zrotation Xrotation
				JOINT rShldr
				{
					OFFSET -3.198488 0.000000 0.000000 
					CHANNELS 3 Zrotation Yrotation Xrotation
					JOINT rForeArm
					{
						OFFSET -10.139888 0.000000 0.000000 
						CHANNELS 3 Yrotation Zrotation Xrotation
						JOINT rHand
						{
							OFFSET -8.370511 0.000000 0.000000 
							CHANNELS 3 Zrotation Yrotation Xrotation
							End Site
							{
								OFFSET -4.083176 0.000000 0.000000 
							}
						}
					}
				}
			}
		}
	}
	JOINT lThigh
	{
		OFFSET 5.308129 -1.633274 1.361059 
		CHANNELS 3 Xrotation Zrotation Yrotation
		JOINT lShin
		{
			OFFSET -2.041588 -20.007561 0.000000 
			CHANNELS 3 Xrotation Zrotation Yrotation
			JOINT lFoot
			{
				OFFSET 0.000000 -19.190928 -1.224953 
				CHANNELS 3 Xrotation Yrotation Zrotation
				End Site
				{
					OFFSET 0.000000 -2.449906 4.627600 
				}
			}
		}
	}
	JOINT rThigh
	{
		OFFSET -5.308129 -1.633274 1.361059 
		CHANNELS 3 Xrotation Zrotation Yrotation
		JOINT rShin
		{
			OFFSET 2.041588 -20.007561 0.000000 
			CHANNELS 3 Xrotation Zrotation Yrotation
			JOINT rFoot
			{
				OFFSET 0.000000 -19.190928 -1.224953 
				CHANNELS 3 Xrotation Yrotation Zrotation
				End Site
				{
					OFFSET 0.000000 -2.449906 4.627600 
				}
			}
		}
	}
}
MOTION
Frames: 13
Frame Time: 0.033333
-26.133057 52.498562 9.498449 -34.589844 8.857423 -167.410599 47.114075 -9.952899 -14.558343 -16.845703 1.425781 -8.720703 51.063168 8.107644 2.471410 -44.179688 -3.193359 3.183594 2.000000 -2.000000 0.000000 -34.541016 -40.429688 8.089372 -67.102142 -1.292655 -2.424920 53.820084 22.180042 51.677208 -2.000000 2.000000 0.000000 42.802734 7.529296 0.264951 90.385094 -0.654062 -2.929093 88.491249 -58.017101 -88.868584 -56.622456 11.442795 4.944789 22.832138 -4.901521 -2.133813 -3.253247 3.692781 -3.166758 -39.224590 -10.444388 -35.892395 3.250775 5.202539 0.274565 8.736335 -6.657061 9.964093 
-26.160597 52.498562 9.469021 -34.589844 8.857423 -167.410599 47.114075 -9.952899 -14.558343 -16.845703 1.425781 -8.720703 51.063168 8.107644 2.471410 -44.355469 -3.173828 3.369141 2.000000 -2.000000 0.000000 -34.648441 -40.595699 7.792969 -66.915092 -1.211260 -2.370984 53.949173 21.765755 51.593098 -2.000000 2.000000 0.000000 45.751949 7.783204 -2.900390 88.826279 -0.422494 -3.042815 89.721832 -44.110535 -86.567841 -56.422920 11.610638 5.057219 22.822987 -4.895741 -2.141664 -3.095533 3.761633 -3.364250 -39.224583 -10.444392 -35.892395 3.250775 5.202539 0.274565 8.801665 -6.676164 10.357677 
-26.189522 52.522198 9.437119 -34.589844 8.857423 -167.410599 47.114075 -9.952899 -14.558343 -16.845703 1.425781 -8.720703 51.063168 8.107644 2.471410 -44.355469 -3.173828 3.369141 2.000000 -2.000000 0.000000 -34.345707 -40.585938 7.646483 -67.097343 -0.961062 -2.610443 53.849651 21.995665 51.768116 -2.000000 2.000000 0.000000 45.917969 8.144533 -3.964844 88.659500 -0.238949 -3.002863 90.205376 -42.689060 -85.989029 -56.430248 11.414541 5.166029 22.644295 -4.883378 -2.162857 -3.138084 3.708960 -3.342313 -39.056950 -10.451950 -35.707630 3.071568 5.197077 0.259890 8.786075 -6.673928 10.153835 
-26.208504 52.514320 9.421891 -34.755859 8.837891 -167.439896 47.114075 -9.952899 -14.558343 -16.845703 1.425781 -8.720703 51.063168 8.107644 2.471410 -44.521484 -3.173828 3.183594 2.000000 -2.000000 0.000000 -34.365234 -40.585938 7.659662 -66.745506 -0.970245 -2.600130 53.605122 22.062183 51.570980 -2.000000 2.000000 0.000000 44.306644 8.623047 -3.143065 89.002060 -0.422494 -3.042815 89.159454 -47.811432 -85.261116 -56.430252 11.414543 5.166026 22.644295 -4.883378 -2.162858 -3.250056 3.773238 -3.123525 -39.056950 -10.451946 -35.707634 2.895973 5.196499 0.225737 8.942307 -6.695209 10.375306 
-26.211857 52.514320 9.407622 -34.755859 8.837891 -167.439896 47.111771 -10.045915 -14.419804 -16.679688 1.425781 -8.700929 51.063168 8.107644 2.471410 -44.521484 -3.173828 3.183594 2.000000 -2.000000 0.000000 -34.287109 -40.390629 7.786642 -66.573982 -1.300703 -2.395117 53.637890 21.819286 51.603264 -2.000000 2.000000 0.000000 42.353519 8.876953 -1.980915 89.704689 -0.287131 -3.015428 87.142899 -55.844700 -84.639000 -56.442955 11.425179 4.980537 22.644613 -4.883425 -2.153144 -3.048711 3.729138 -3.177494 -39.056950 -10.451944 -35.707634 2.895973 5.196500 0.225737 8.942307 -6.695210 10.375305 
-26.204569 52.530083 9.377698 -34.755859 8.837891 -167.615677 46.938335 -10.061702 -14.404895 -16.679688 1.591797 -8.671604 51.063168 8.107644 2.471410 -44.716797 -3.320312 3.007813 2.000000 -2.000000 0.000000 -34.521484 -40.703121 8.304180 -66.215233 -1.179065 -2.490198 53.990479 21.542828 51.625031 -2.000000 2.000000 0.000000 40.644531 9.121095 -0.525794 90.408279 -0.490739 -3.046762 86.093422 -62.389141 -84.712311 -56.430252 11.414541 5.166028 22.644297 -4.883371 -2.162856 -3.178525 4.053788 -3.389776 -39.056950 -10.451951 -35.707630 2.895974 5.196500 0.225737 8.956636 -6.673102 10.362330 
-26.187212 52.522198 9.361706 -34.755859 8.837891 -167.615677 46.950935 -10.181435 -14.532078 -16.660156 1.767578 -8.457032 51.063168 8.107644 2.471410 -44.892582 -3.320312 2.851563 2.000000 -2.000000 0.000000 -34.248043 -40.683590 8.108869 -66.398186 -1.310453 -2.394550 53.464401 21.820776 51.599243 -2.000000 2.000000 0.000000 39.550781 8.876953 0.771484 91.264542 -0.662682 -2.949148 84.765793 -67.369370 -84.486298 -56.430248 11.414546 5.166028 22.634315 -4.883312 -2.162033 -3.176674 4.052774 -3.379540 -39.056950 -10.451946 -35.707634 3.071568 5.197076 0.259890 8.961435 -6.694070 10.365917 
-26.177488 52.537945 9.357725 -34.931641 8.818360 -167.644989 46.950935 -10.181435 -14.532078 -16.660156 1.767578 -8.457032 51.063168 8.107644 2.471410 -44.892582 -3.320312 2.666016 2.000000 -2.000000 0.000000 -34.335938 -40.605469 8.603515 -66.393379 -0.988612 -2.579505 53.258221 22.065191 51.572720 -2.000000 2.000000 0.000000 38.466797 8.876953 2.109375 91.814491 -0.558984 -3.050710 83.759491 -72.694130 -84.249390 -56.422920 11.610634 5.057222 22.652269 -4.896513 -2.146603 -2.988714 3.938209 -3.251438 -39.236294 -10.466615 -35.715752 3.071529 5.197017 0.279395 8.952815 -6.672739 10.168332 
-26.156546 52.522198 9.383668 -34.931641 8.818360 -167.644989 46.950935 -10.181435 -14.532078 -16.835938 1.943359 -8.427735 51.063168 8.107644 2.471410 -44.892582 -3.320312 2.666016 2.000000 -2.000000 0.000000 -34.697266 -40.566406 9.017087 -66.745506 -0.970245 -2.600130 53.258221 22.065191 51.572720 -2.000000 2.000000 0.000000 37.441410 8.720703 3.233904 92.526413 -0.229764 -2.992554 81.558464 -78.058929 -83.288490 -56.622456 11.442792 4.944790 22.669781 -4.911881 -2.131570 -3.035059 3.773022 -3.149637 -39.236294 -10.466614 -35.715752 3.071529 5.197017 0.279395 8.766945 -6.652815 9.955782 
-26.125301 52.530083 9.402668 -34.931641 8.818360 -167.644989 46.971500 -10.388341 -14.508291 -17.011719 1.943360 -8.261388 51.063168 8.107644 2.471410 -44.716797 -3.320312 2.490234 2.000000 -2.000000 0.000000 -34.736328 -40.517578 9.319829 -66.921288 -0.970246 -2.600130 53.500725 22.379890 51.820400 -2.000000 2.000000 0.000000 36.464844 8.330078 5.029297 93.229805 -0.258448 -3.003991 76.241745 -83.093201 -79.299965 -56.622456 11.442793 4.944790 22.669781 -4.911882 -2.131570 -2.967321 3.737335 -3.577468 -39.412224 -10.466727 -35.697620 3.071527 5.197020 0.279395 8.572589 -6.648302 9.952152 
-26.121021 52.506439 9.430650 -34.931641 8.818360 -167.644989 46.971500 -10.388341 -14.508291 -17.011719 1.943360 -8.261388 51.063168 8.107644 2.471410 -44.541016 -3.349609 2.460938 2.000000 -2.000000 0.000000 -34.990234 -40.322269 9.378447 -67.102142 -1.292655 -2.424920 53.707531 22.125757 51.847027 -2.000000 2.000000 0.000000 35.820313 8.193358 6.162109 93.933205 -0.287131 -3.015428 59.394150 -87.713943 -63.327480 -56.594505 11.599303 5.063889 22.644297 -4.883374 -2.162856 -3.026242 3.970649 -3.438407 -39.595379 -10.502753 -35.335194 3.248085 5.218471 -0.212868 8.793364 -6.697393 10.178015 
-26.135946 52.506439 9.437083 -35.107422 8.789063 -167.664520 46.971500 -10.388341 -14.508291 -17.011719 1.943360 -8.261388 51.063168 8.107644 2.471410 -44.384769 -3.525390 2.451172 2.000000 -2.000000 0.000000 -34.746094 -40.244141 9.404297 -67.277931 -1.292655 -2.424920 53.798687 22.218130 52.142902 -2.000000 2.000000 0.000000 34.882813 8.124999 6.992188 94.460541 -0.306630 -3.016556 -56.375271 -88.017494 51.057598 -56.781376 11.404796 5.299465 22.833923 -4.886187 -2.169897 -3.158884 3.709890 -3.383804 -39.595383 -10.502752 -35.335194 3.248086 5.218470 -0.212868 8.783615 -6.693757 10.005634 
-26.158396 52.514320 9.439074 -35.107422 8.789063 -167.664520 46.948288 -10.259489 -14.377715 -17.011719 1.943360 -8.437169 51.063168 8.107644 2.471410 -44.365238 -3.349609 2.636719 2.000000 -2.000000 0.000000 -34.746094 -40.244141 9.404297 -67.277931 -1.292655 -2.424920 53.707531 22.125757 51.847027 -2.000000 2.000000 0.000000 33.896484 8.164063 7.519531 94.981155 -0.202935 -3.118083 -82.264046 -83.980255 76.320305 -56.781376 11.404799 5.299464 22.833923 -4.886186 -2.169897 -3.158884 3.709890 -3.383804 -39.595383 -10.502753 -35.335194 3.248085 5.218471 -0.212868 8.786071 -6.684236 10.171156 
